<?xml version="1.0" encoding="utf-8"?>
<svg xmlns="http://www.w3.org/2000/svg">
  <symbol id="TICK" viewBox="0 0 48 48"><path d="M18.9 35.7 7.7 24.5l2.15-2.15 9.05 9.05 19.2-19.2 2.15 2.15Z"/></symbol>
  <symbol id="CROSS" viewBox="0 0 48 48"><path d="m12.45 37.65-2.1-2.1L21.9 24 10.35 12.45l2.1-2.1L24 21.9l11.55-11.55 2.1 2.1L26.1 24l11.55 11.55-2.1 2.1L24 26.1Z"/></symbol>
  <symbol id="HEADSET_OFF" viewBox="0 0 48 48"><path d="m41.2 37.6-3-3v-6.35h-4.4v1.95l-3-3v-1.95h7.4v-3.4q0-6.2-4.35-10.675Q29.5 6.7 23.3 6.7q-2.55 0-5.025.9-2.475.9-4.475 2.6L11.6 8q2.25-1.9 5.25-3.1 3-1.2 6.45-1.2 3.75 0 7.025 1.425Q33.6 6.55 36 9.025q2.4 2.475 3.8 5.775 1.4 3.3 1.4 7.05Zm.7 9.25-1.8-1.8q-.35.3-.85.5t-1.05.2H23.3v-3h14.5l-2.7-2.7h-4.3v-4.3L10 14.95q-.85 1.4-1.325 3.25T8.2 21.85v3.4h7.4v14.8H8.2q-1.2 0-2.1-.9-.9-.9-.9-2.1v-15.2q0-2.65.675-5.025Q6.55 14.45 7.7 12.65l-6.5-6.5L3.35 4l40.7 40.7Zm-33.7-9.8h4.4v-8.8H8.2v8.8Zm30-2.45Zm-25.6 2.45H8.2h4.4Z"/></symbol>
  <symbol id="SEARCH" viewBox="0 0 48 48"><path d="M39.8 41.95 26.65 28.8q-1.5 1.3-3.5 2.025-2 .725-4.25.725-5.4 0-9.15-3.75T6 18.75q0-5.3 3.75-9.05 3.75-3.75 9.1-3.75 5.3 0 9.025 3.75 3.725 3.75 3.725 9.05 0 2.15-.7 4.15-.7 2-2.1 3.75L42 39.75Zm-20.95-13.4q4.05 0 6.9-2.875Q28.6 22.8 28.6 18.75t-2.85-6.925Q22.9 8.95 18.85 8.95q-4.1 0-6.975 2.875T9 18.75q0 4.05 2.875 6.925t6.975 2.875Z"/></symbol>
  <symbol id="PERSON" viewBox="0 0 48 48"><path d="M24 23.95q-3.3 0-5.4-2.1-2.1-2.1-2.1-5.4 0-3.3 2.1-5.4 2.1-2.1 5.4-2.1 3.3 0 5.4 2.1 2.1 2.1 2.1 5.4 0 3.3-2.1 5.4-2.1 2.1-5.4 2.1ZM8 40v-4.7q0-1.9.95-3.25T11.4 30q3.35-1.5 6.425-2.25Q20.9 27 24 27q3.1 0 6.15.775 3.05.775 6.4 2.225 1.55.7 2.5 2.05.95 1.35.95 3.25V40Zm3-3h26v-1.7q0-.8-.475-1.525-.475-.725-1.175-1.075-3.2-1.55-5.85-2.125Q26.85 30 24 30t-5.55.575q-2.7.575-5.85 2.125-.7.35-1.15 1.075Q11 34.5 11 35.3Zm13-16.05q1.95 0 3.225-1.275Q28.5 18.4 28.5 16.45q0-1.95-1.275-3.225Q25.95 11.95 24 11.95q-1.95 0-3.225 1.275Q19.5 14.5 19.5 16.45q0 1.95 1.275 3.225Q22.05 20.95 24 20.95Zm0-4.5ZM24 37Z"/></symbol>
</svg>